<svg id="圖層_1" data-name="圖層 1" xmlns="http://www.w3.org/2000/svg" viewBox="0 0 132.07 106.81"><defs><style>.cls-1{fill:#dca54c;}.cls-2{fill:#fff;}.cls-3{fill:#231815;}.cls-4{fill:#f29c97;}.cls-5{fill:#999;}</style></defs><title>logo</title><path class="cls-1" d="M108.8,59.78a51.78,51.78,0,0,0-5.09-15,102.76,102.76,0,0,0,0-20.3A99.32,99.32,0,0,0,101.91,13a5.2,5.2,0,0,0-8.72-2.64A102.36,102.36,0,0,0,81.3,24.21a39.21,39.21,0,0,0-27.66,0A101.75,101.75,0,0,0,41.75,10.4,5.21,5.21,0,0,0,33,13a103.88,103.88,0,0,0-1.79,11.43,102.65,102.65,0,0,0,0,20.29,51.66,51.66,0,0,0-5.1,15,10.79,10.79,0,0,0,.4,5.23,90.61,90.61,0,0,0,9.85,20.21,14,14,0,0,0,4.4,4.32,52.5,52.5,0,0,0,26.69,7.73,52.44,52.44,0,0,0,26.68-7.73,14,14,0,0,0,4.4-4.32A90.61,90.61,0,0,0,108.4,65,10.79,10.79,0,0,0,108.8,59.78Z"/><path class="cls-2" d="M104.4,60.55c-.12-.65-.24-1.3-.38-1.93a8,8,0,0,0-12.21-5.28l-2.6,2.23a6.69,6.69,0,0,1-9.4-.86,7.87,7.87,0,0,1-1.15-2.05,4.13,4.13,0,0,0-3.8-2.53,4.23,4.23,0,0,0-1.67.35h0a14.15,14.15,0,0,1-11.45,0h0a4.23,4.23,0,0,0-1.67-.35,4.13,4.13,0,0,0-3.8,2.53,7.87,7.87,0,0,1-1.15,2.05,6.69,6.69,0,0,1-9.4.86l-2.6-2.23a8,8,0,0,0-12.21,5.28c-.14.63-.26,1.28-.38,1.93a6.39,6.39,0,0,0,.24,3.06,80.18,80.18,0,0,0,6.09,13.72C40,82.66,43.5,86.24,49.22,88.9a47.64,47.64,0,0,0,18.25,3.9h0a47.63,47.63,0,0,0,18.24-3.9c5.72-2.66,9.22-6.24,12.36-11.57a80.18,80.18,0,0,0,6.09-13.72A6.39,6.39,0,0,0,104.4,60.55Z"/><path class="cls-3" d="M69.7,54H65.23a4,4,0,0,0-3.47,2h0a4,4,0,0,0,.53,4.64l1.4,1.53a4,4,0,0,0,2.94,1.29H68.3a4,4,0,0,0,2.94-1.29l1.4-1.53A4,4,0,0,0,73.18,56h0A4,4,0,0,0,69.7,54Z"/><circle class="cls-2" cx="58.01" cy="39.99" r="3.56"/><circle class="cls-2" cx="76.92" cy="39.99" r="3.56"/><path class="cls-3" d="M82.93,60.08a2,2,0,0,0-1.58.79l-2.76,4.35a4.49,4.49,0,0,1-3.72,2,4.42,4.42,0,0,1-2-.48,11.83,11.83,0,0,0-5.38-1,11.84,11.84,0,0,0-5.39,1,4.41,4.41,0,0,1-2,.48,4.51,4.51,0,0,1-3.73-2l-2.76-4.35A2,2,0,0,0,50.24,63L59.93,78.6h0A8.79,8.79,0,0,0,75,78.6h0L84.69,63a2,2,0,0,0,.22-.9A2,2,0,0,0,82.93,60.08Z"/><path class="cls-4" d="M75.47,70.33A2,2,0,0,0,73.77,69l-.47,0a12.41,12.41,0,0,0-3.32.44,10,10,0,0,1-5,0,12.46,12.46,0,0,0-3.32-.44l-.48,0a2.18,2.18,0,0,0-1.09.47h0a2.42,2.42,0,0,0-.33,2.84l3.14,5.07a5.41,5.41,0,0,0,9.17,0l3.16-5.1A2.23,2.23,0,0,0,75.47,70.33Z"/><path class="cls-2" d="M39.14,17.36a1.49,1.49,0,0,0-2.54.78c-.39,2.24-.7,4.51-.92,6.77a98.26,98.26,0,0,0-.41,13.61,1.5,1.5,0,0,0,2.36,1.16c3.44-2.45,9-7.67,10-11.13a1.48,1.48,0,0,0-.25-1.36C46.07,25.47,41.76,20.07,39.14,17.36Z"/><path class="cls-2" d="M95.8,17.36a1.49,1.49,0,0,1,2.54.78c.38,2.24.69,4.51.92,6.77a99.84,99.84,0,0,1,.41,13.61,1.5,1.5,0,0,1-2.37,1.16c-3.43-2.45-9-7.67-10-11.13a1.51,1.51,0,0,1,.26-1.36C88.87,25.47,93.17,20.07,95.8,17.36Z"/><path class="cls-2" d="M38.81,76.29V49.64a4.66,4.66,0,0,0-2.45-4.1h0a2.29,2.29,0,0,0-1.16-.31h-.33l0,1.16v-.83a2.69,2.69,0,0,0-5-1.44,2.66,2.66,0,0,0-2.26-1.24A2.69,2.69,0,0,0,25,45.55v.83l0-1.16h-.09a2.51,2.51,0,0,0-1.19.31l0,0a4.75,4.75,0,0,0-2.49,4.18V80.5Z"/><path class="cls-1" d="M21.25,54.53a1,1,0,0,1-1.05-1.05V49.73a5.8,5.8,0,0,1,3-5.11l.07,0a3.38,3.38,0,0,1,1.78-.41,1.05,1.05,0,0,1,1,1.09,1,1,0,0,1-1.09,1H25a1.36,1.36,0,0,0-.68.18l-.08,0a3.7,3.7,0,0,0-1.9,3.24v3.75A1,1,0,0,1,21.25,54.53Z"/><path class="cls-1" d="M41.93,87a43.33,43.33,0,0,1-2-13V49.64a5.7,5.7,0,0,0-3-5l-.06,0a3.45,3.45,0,0,0-1.64-.42H35a1.12,1.12,0,0,0-1.12.9,1,1,0,0,0,1,1.2h.33a1.35,1.35,0,0,1,.66.17l.07,0a3.63,3.63,0,0,1,1.87,3.16V60.36a0,0,0,0,1,0,0,33.87,33.87,0,0,1-15.48,0s0,0,0,0V53.56a1.12,1.12,0,0,0-.9-1.12,1,1,0,0,0-1.2,1v27a47.16,47.16,0,0,0,3.41,17.76,7.35,7.35,0,0,0,6.82,4.55h.18A12.13,12.13,0,0,0,41.93,87Z"/><path class="cls-1" d="M25,46.6A1,1,0,0,1,24,45.55a3.74,3.74,0,0,1,6.89-2,1,1,0,1,1-1.77,1.12,1.64,1.64,0,0,0-3,.88A1,1,0,0,1,25,46.6Z"/><path class="cls-1" d="M30,46.27a1,1,0,0,1-1-1.05V44.11a1.05,1.05,0,0,1,2.1,0v1.11A1,1,0,0,1,30,46.27Z"/><path class="cls-1" d="M25,47.43a1,1,0,0,1-1.05-1v-.83a1.05,1.05,0,0,1,2.1,0v.83A1,1,0,0,1,25,47.43Z"/><path class="cls-1" d="M34.92,46.6a1,1,0,0,1-1.05-1.05,1.64,1.64,0,0,0-3-.88,1,1,0,1,1-1.77-1.12,3.73,3.73,0,0,1,6.88,2A1,1,0,0,1,34.92,46.6Z"/><path class="cls-1" d="M34.92,47.43a1,1,0,0,1-1.05-1v-.83a1,1,0,0,1,2.1,0v.83A1,1,0,0,1,34.92,47.43Z"/><path class="cls-4" d="M30,51.7H30a3.9,3.9,0,0,0-3.64,2.52L25.63,56a1.67,1.67,0,0,0,2.22,2.15l1.52-.58a1.76,1.76,0,0,1,1.24,0l1.52.58A1.68,1.68,0,0,0,34.36,56l-.68-1.82A3.9,3.9,0,0,0,30,51.7Z"/><circle class="cls-4" cx="28.08" cy="48.95" r="1.3"/><circle class="cls-4" cx="24.84" cy="51.56" r="1.3"/><circle class="cls-4" cx="35.47" cy="51.56" r="1.3"/><circle class="cls-4" cx="31.91" cy="48.95" r="1.3"/><path class="cls-2" d="M97.6,85.48a9.43,9.43,0,0,0-9.44,9.44v.48a4.4,4.4,0,0,0,2.62,3.91h0a2.71,2.71,0,0,0,1.25.29h.35a2.79,2.79,0,0,0,2.86,2.25,2.94,2.94,0,0,0,2.42-1.19h0a3,3,0,0,0,2.43,1.19A2.78,2.78,0,0,0,103,99.6h.09a3,3,0,0,0,1.27-.29l0,0a4.47,4.47,0,0,0,2.67-4v-.4A9.44,9.44,0,0,0,97.6,85.48Z"/><path class="cls-1" d="M100.12,102.91a4,4,0,0,1-3.28-1.63,1,1,0,0,1,.24-1.46,1.06,1.06,0,0,1,1.47.24,1.94,1.94,0,0,0,1.57.75A1.7,1.7,0,0,0,102,99.3a1,1,0,0,1,2.1,0A3.78,3.78,0,0,1,100.12,102.91Z"/><path class="cls-1" d="M97.69,101.72a1,1,0,0,1-1-1V99.61a1,1,0,0,1,2.1,0v1.06A1,1,0,0,1,97.69,101.72Z"/><path class="cls-1" d="M103,100.35a1,1,0,0,1-1-1v-.79a1,1,0,1,1,2.1,0v.79A1,1,0,0,1,103,100.35Z"/><path class="cls-1" d="M95.27,102.91a3.78,3.78,0,0,1-3.93-3.61,1,1,0,0,1,2.1,0,1.7,1.7,0,0,0,1.83,1.51,1.94,1.94,0,0,0,1.57-.75,1.05,1.05,0,0,1,1.71,1.22A4,4,0,0,1,95.27,102.91Z"/><path class="cls-1" d="M92.39,100.35a1,1,0,0,1-1-1v-.79a1,1,0,1,1,2.1,0v.79A1,1,0,0,1,92.39,100.35Z"/><path class="cls-1" d="M103.07,100.66h-.13a1.05,1.05,0,0,1-1-1.09,1.06,1.06,0,0,1,1.08-1h.06a1.8,1.8,0,0,0,.8-.18l.08,0a3.44,3.44,0,0,0,2-3v-.39a8.39,8.39,0,1,0-16.78,0v.48a3.36,3.36,0,0,0,2,2.95l.08,0a1.69,1.69,0,0,0,.78.18h.35a1,1,0,1,1,0,2.1h-.35a3.83,3.83,0,0,1-1.68-.38l-.06,0a5.43,5.43,0,0,1-3.21-4.85v-.48a10.49,10.49,0,0,1,21,0v.39a5.53,5.53,0,0,1-3.26,4.94l-.07,0A3.94,3.94,0,0,1,103.07,100.66Z"/><circle class="cls-3" cx="54.06" cy="44.04" r="3.99"/><circle class="cls-3" cx="80.4" cy="44.04" r="3.99"/><path class="cls-5" d="M69.07,92.86a3.5,3.5,0,0,0-1.6.39,3.57,3.57,0,0,0-1.61-.39,3.48,3.48,0,0,0-3.48,3.48,2.93,2.93,0,0,0,0,.41v.07a.91.91,0,0,1,0,.16v0a7.77,7.77,0,0,0,2.81,4.71,7.62,7.62,0,0,0,1.6,1,1.42,1.42,0,0,0,.29.1,1.73,1.73,0,0,0,.32,0,1.46,1.46,0,0,0,.61-.13,7.72,7.72,0,0,0,1.22-.7,8.09,8.09,0,0,0,1.38-1.23l.29-.36a7.92,7.92,0,0,0,.65-1c.07-.13.14-.26.2-.39s.23-.51.33-.78.13-.41.19-.61,0-.14,0-.21.06-.25.08-.38h0s0-.06,0-.1,0-.07,0-.12a.34.34,0,0,0,0-.1,3.19,3.19,0,0,0,0-.42A3.48,3.48,0,0,0,69.07,92.86Z"/><path class="cls-2" d="M96.79,8.92A5.2,5.2,0,0,1,101.91,13a99.32,99.32,0,0,1,1.79,11.43,102.76,102.76,0,0,1,0,20.3,51.78,51.78,0,0,1,5.09,15,10.79,10.79,0,0,1-.4,5.23A89.72,89.72,0,0,1,99,84.53a10.49,10.49,0,0,1,9.1,10.39v.39a5.53,5.53,0,0,1-3.26,4.94l-.07,0a3.73,3.73,0,0,1-1,.31,3.91,3.91,0,0,1-3.66,2.32,4.12,4.12,0,0,1-2.43-.78,4.09,4.09,0,0,1-2.42.78,4,4,0,0,1-3.65-2.27,3.84,3.84,0,0,1-1.24-.36l-.06,0a5.43,5.43,0,0,1-3.21-4.85v-.48a10.16,10.16,0,0,1,.16-1.84A53.14,53.14,0,0,1,72.49,97a.87.87,0,0,1,0,.1,7.76,7.76,0,0,1-4.39,5.64,1.46,1.46,0,0,1-.61.13,1.39,1.39,0,0,1-.61-.13A7.76,7.76,0,0,1,62.45,97h0l0,0A53.38,53.38,0,0,1,42.5,90.55a12.08,12.08,0,0,1-11.89,12.26h-.18a7.35,7.35,0,0,1-6.82-4.55A47.16,47.16,0,0,1,20.2,80.5v-27h0V49.73a5.8,5.8,0,0,1,3-5.11l.07,0a3.46,3.46,0,0,1,.9-.33A3.72,3.72,0,0,1,30,42.59,3.68,3.68,0,0,1,31,42a102.23,102.23,0,0,1,.23-17.56A103.88,103.88,0,0,1,33,13a5.21,5.21,0,0,1,5.12-4.12,5.11,5.11,0,0,1,3.61,1.48A101.75,101.75,0,0,1,53.64,24.21a39.21,39.21,0,0,1,27.66,0A102.36,102.36,0,0,1,93.19,10.4a5.09,5.09,0,0,1,3.6-1.48m0-3A8.11,8.11,0,0,0,91.1,8.24,105.66,105.66,0,0,0,80.19,20.65a42.26,42.26,0,0,0-25.44,0A106.58,106.58,0,0,0,43.84,8.24a8.21,8.21,0,0,0-13.75,4.17,105.72,105.72,0,0,0-1.84,11.76,106.86,106.86,0,0,0-.44,14.65h-.1a6.78,6.78,0,0,0-5.62,3l-.15.08,0,0,0,0-.05,0a8.77,8.77,0,0,0-4.61,7.74V80.5a50.26,50.26,0,0,0,3.63,18.88,10.28,10.28,0,0,0,9.6,6.43h.2a14.75,14.75,0,0,0,10.7-4.68,15.17,15.17,0,0,0,3.51-6A56.92,56.92,0,0,0,60.12,99.7a10.72,10.72,0,0,0,5.49,5.75,4.45,4.45,0,0,0,1.86.4,4.32,4.32,0,0,0,1.84-.4,10.72,10.72,0,0,0,5.51-5.75,56.76,56.76,0,0,0,9.53-2.31A8.58,8.58,0,0,0,89,103l0,0,.05,0h0a6.07,6.07,0,0,0,.59.24,7.14,7.14,0,0,0,8,2.24,7.1,7.1,0,0,0,2.43.42,7,7,0,0,0,5.66-2.8l.23-.1,0,0,0,0,0,0a8.51,8.51,0,0,0,5-7.64v-.39a13.53,13.53,0,0,0-7.56-12.11A88.83,88.83,0,0,0,111.25,66a13.76,13.76,0,0,0,.5-6.7,54.43,54.43,0,0,0-5-15.08,106.17,106.17,0,0,0-.09-20,105.72,105.72,0,0,0-1.84-11.76,8.18,8.18,0,0,0-8.06-6.49Z"/><path class="cls-2" d="M69.07,92.86a3.48,3.48,0,0,1,3.48,3.48,3.19,3.19,0,0,1,0,.42.34.34,0,0,1,0,.1l0,.22a7.76,7.76,0,0,1-4.39,5.64,1.46,1.46,0,0,1-.61.13,1.39,1.39,0,0,1-.61-.13A7.76,7.76,0,0,1,62.45,97a1.91,1.91,0,0,0,0-.21v-.07a2.93,2.93,0,0,1,0-.41,3.48,3.48,0,0,1,3.48-3.48,3.57,3.57,0,0,1,1.61.39,3.5,3.5,0,0,1,1.6-.39m0-3a6.62,6.62,0,0,0-1.6.2,6.76,6.76,0,0,0-1.61-.2,6.49,6.49,0,0,0-6.48,6.48,6.34,6.34,0,0,0,0,.74,1,1,0,0,1,0,.16l.06.32a10.76,10.76,0,0,0,6.11,7.89,4.48,4.48,0,0,0,1.86.4,4.36,4.36,0,0,0,1.84-.4,10.7,10.7,0,0,0,6.1-7.78c0-.07,0-.16.06-.3s0-.18,0-.28a6.28,6.28,0,0,0,0-.75,6.48,6.48,0,0,0-6.48-6.48Z"/></svg>